<svg width="24" height="24" viewBox="0 0 24 24" fill="none" xmlns="http://www.w3.org/2000/svg">
<path d="M20.2543 3H11.5884C11.5884 5.16 13.3366 6.90899 15.4972 6.90899H17.091V8.45137C17.091 10.6114 18.84 12.3604 21 12.3604V3.74569C20.9998 3.54796 20.9212 3.35838 20.7814 3.21857C20.6416 3.07876 20.452 3.00015 20.2543 3Z" fill="#2684FF"/>
<path d="M15.9603 7.32001H7.29419C7.29419 9.47982 9.04263 11.2288 11.2025 11.2288H12.797V12.7712C12.797 14.9312 14.546 16.6802 16.706 16.6802V8.06551C16.7057 7.86783 16.627 7.67834 16.4872 7.53856C16.3475 7.39878 16.158 7.32031 15.9603 7.32001Z" fill="url(#paint0_linear_4100_41796)"/>
<path d="M11.6661 11.6396H3C3 13.8004 4.74826 15.5486 6.90901 15.5486H8.50277V17.0918C8.50277 19.2518 10.2518 21 12.4116 21V12.3861C12.4114 12.1884 12.3328 11.9988 12.1931 11.8589C12.0533 11.719 11.8638 11.64 11.6661 11.6396Z" fill="url(#paint1_linear_4100_41796)"/>
<defs>
<linearGradient id="paint0_linear_4100_41796" x1="16.5256" y1="7.32976" x2="12.8386" y2="11.1315" gradientUnits="userSpaceOnUse">
<stop offset="0.176" stop-color="#0052CC"/>
<stop offset="1" stop-color="#2684FF"/>
</linearGradient>
<linearGradient id="paint1_linear_4100_41796" x1="12.4808" y1="11.673" x2="8.21778" y2="15.8205" gradientUnits="userSpaceOnUse">
<stop offset="0.176" stop-color="#0052CC"/>
<stop offset="1" stop-color="#2684FF"/>
</linearGradient>
</defs>
</svg>
