<svg width="24" height="24" viewBox="0 0 24 24" fill="none" xmlns="http://www.w3.org/2000/svg">
<path d="M6.19324 3H17.8268C19.5852 3 21.02 4.42078 21.02 6.19324V17.3766C21.02 19.135 19.5992 20.5699 17.8268 20.5699H6.19324C4.42078 20.5558 3 19.135 3 17.3625V6.19324C3 4.42078 4.42078 3 6.19324 3Z" fill="#330000"/>
<path d="M11.7078 13.508H8.90845L8.34577 15.2664C8.3317 15.3368 8.27543 15.379 8.2051 15.3649H6.79838C6.71398 15.3649 6.69991 15.3227 6.71398 15.2242L9.13353 8.27506C9.16166 8.20473 9.17573 8.12032 9.20386 8.02185C9.232 7.86712 9.24607 7.69831 9.24607 7.52951C9.232 7.4873 9.2742 7.45917 9.30233 7.4451H11.2436C11.2999 7.4451 11.328 7.47324 11.3421 7.50137L14.0852 15.2242C14.1133 15.3086 14.0852 15.3508 14.0148 15.3508H12.4393C12.383 15.3649 12.3408 15.3227 12.3127 15.2664L11.7078 13.508ZM9.34453 11.9747H11.2436C11.2014 11.82 11.1451 11.623 11.0748 11.4402C11.0045 11.2432 10.9341 11.0182 10.8779 10.7931C10.8075 10.5539 10.7372 10.3289 10.6668 10.1038C10.5965 9.86465 10.5262 9.65364 10.4699 9.44264C10.4136 9.23163 10.3574 9.03469 10.3011 8.85182H10.287C10.2167 9.17536 10.1323 9.4989 10.0338 9.82245C9.92129 10.1882 9.80875 10.5539 9.68215 10.9338C9.56961 11.3136 9.45707 11.6652 9.34453 11.9747ZM15.7591 8.78148C15.5059 8.79555 15.2668 8.69708 15.098 8.5142C14.9292 8.33133 14.8307 8.07812 14.8448 7.82492C14.8307 7.57171 14.9292 7.33257 15.1121 7.16376C15.2949 6.99495 15.5341 6.89648 15.7732 6.89648C16.0686 6.89648 16.2937 6.98089 16.4625 7.16376C16.6313 7.34663 16.7157 7.58577 16.7157 7.82492C16.7298 8.07812 16.6313 8.33133 16.4484 8.5142C16.2656 8.69708 16.0124 8.79555 15.7591 8.78148ZM14.9151 15.2946V9.51297C14.9151 9.44264 14.9433 9.4145 15.0136 9.4145H16.5047C16.575 9.4145 16.6032 9.4567 16.6032 9.51297V15.2946C16.6032 15.379 16.575 15.4212 16.5047 15.4212H15.0277C14.9573 15.4071 14.9151 15.3649 14.9151 15.2946Z" fill="#FF9A00"/>
</svg>
