<svg width="24" height="24" viewBox="0 0 24 24" fill="none" xmlns="http://www.w3.org/2000/svg">
<path d="M3.64841 16.043C3.45626 16.3462 3.26764 16.6516 3.08259 16.9592C2.92156 17.2284 3.00208 17.5788 3.2712 17.7406L6.96032 20.0042C7.22972 20.1658 7.57922 20.0846 7.74094 19.8154C7.91416 19.5063 8.09371 19.2008 8.27946 18.899C9.73399 16.5013 11.2146 16.7706 13.8533 18.0373L17.5158 19.761C17.8117 19.8961 18.1352 19.761 18.2694 19.4917L20.0202 15.5315C20.1543 15.2616 20.0202 14.9119 19.7501 14.7768C18.9695 14.4263 17.4353 13.6987 16.0887 13.0254C11.1075 10.6269 6.87925 10.7888 3.64869 16.043H3.64841Z" fill="url(#paint0_linear_4100_41800)"/>
<path d="M20.1813 7.04397C20.3735 6.74079 20.5622 6.43539 20.7473 6.12782C20.9089 5.85856 20.8277 5.50823 20.5585 5.34637L16.8694 3.0828C16.6002 2.92121 16.2505 3.00242 16.0888 3.27155C15.9159 3.58083 15.7364 3.88638 15.5504 4.18798C14.0957 6.58569 12.6152 6.31643 9.97647 5.04966L6.31394 3.32601C6.01808 3.19089 5.69533 3.32601 5.56035 3.59527L3.81023 7.55547C3.67539 7.82542 3.81023 8.17589 4.07949 8.31017C4.86011 8.66064 6.39515 9.38833 7.7409 10.0615C12.7231 12.4333 16.9505 12.2981 20.181 7.04397H20.1813Z" fill="url(#paint1_linear_4100_41800)"/>
<defs>
<linearGradient id="paint0_linear_4100_41800" x1="19.9316" y1="21.1767" x2="8.78864" y2="14.7787" gradientUnits="userSpaceOnUse">
<stop stop-color="#0052CC"/>
<stop offset="0.918" stop-color="#2380FB"/>
<stop offset="1" stop-color="#2684FF"/>
</linearGradient>
<linearGradient id="paint1_linear_4100_41800" x1="3.89816" y1="1.90295" x2="15.0411" y2="8.30164" gradientUnits="userSpaceOnUse">
<stop stop-color="#0052CC"/>
<stop offset="0.918" stop-color="#2380FB"/>
<stop offset="1" stop-color="#2684FF"/>
</linearGradient>
</defs>
</svg>
