<svg width="24" height="24" viewBox="0 0 24 24" fill="none" xmlns="http://www.w3.org/2000/svg">
<g clip-path="url(#clip0_4100_41830)">
<path d="M19.35 8.61442C19.3509 9.30262 19.1975 9.98226 18.9012 10.6034C18.6048 11.2245 18.1731 11.7714 17.6376 12.2037L5.32523 5.21201C5.27814 5.18512 5.23447 5.15264 5.19518 5.11526C5.13348 5.05468 5.08445 4.98244 5.05094 4.90272C5.01743 4.82301 5.00012 4.73743 5 4.65096C4.99998 4.56549 5.01679 4.48086 5.04948 4.40189C5.08217 4.32292 5.13009 4.25116 5.19051 4.19071C5.25094 4.13026 5.32267 4.08231 5.40163 4.04959C5.48059 4.01686 5.56521 4.00001 5.65068 4H14.7378C15.3436 3.99999 15.9434 4.11936 16.503 4.35127C17.0626 4.58318 17.571 4.9231 17.9992 5.35159C18.8642 6.2171 19.3501 7.39074 19.35 8.61442Z" fill="#18B4F4"/>
<path d="M19.35 15.7927C19.3502 16.3988 19.2311 16.9989 18.9993 17.5589C18.7677 18.1189 18.4279 18.6278 17.9996 19.0564C17.5713 19.4849 17.0628 19.8248 16.5031 20.0568C15.9434 20.2887 15.3436 20.4082 14.7377 20.4083H5.65078C5.522 20.407 5.39651 20.3674 5.29024 20.2947C5.18401 20.222 5.10176 20.1193 5.05391 19.9998C5.00591 19.8803 4.9945 19.7492 5.02112 19.6231C5.04756 19.4971 5.11081 19.3818 5.20285 19.2918C5.23958 19.2551 5.2807 19.223 5.32527 19.1963L10.1709 16.4448L17.6367 12.2046C18.172 12.6369 18.6037 13.1835 18.9001 13.8044C19.1966 14.4253 19.3503 15.1047 19.35 15.7927Z" fill="#FD6B3C"/>
<path d="M17.6375 12.2037L10.1707 16.4449L5.32535 19.1963C5.27875 19.2222 5.23569 19.254 5.19727 19.2909C7.04494 17.3947 8.07794 14.8512 8.07562 12.2037C8.07913 9.55575 7.04639 7.01156 5.19827 5.11523C5.23764 5.15262 5.28138 5.18511 5.32855 5.21198L17.6375 12.2037Z" fill="#A97FF2"/>
</g>
<defs>
<clipPath id="clip0_4100_41830">
<rect width="14.35" height="16.424" fill="white" transform="translate(5 4)"/>
</clipPath>
</defs>
</svg>
