<svg width="24" height="24" viewBox="0 0 24 24" fill="none" xmlns="http://www.w3.org/2000/svg">
<path d="M6.19109 3H17.8289C19.5935 3 21.02 4.42654 21.02 6.19109V17.3784C21.02 19.143 19.5935 20.5695 17.8289 20.5695H6.19109C4.42654 20.5695 3 19.143 3 17.3784V6.19109C3 4.42654 4.42654 3 6.19109 3Z" fill="#001E36"/>
<path d="M9.4574 7.46729C9.23215 7.46729 9.0069 7.46729 8.77419 7.47489C8.54134 7.48235 8.32355 7.48235 8.12082 7.48995C7.9181 7.49741 7.73044 7.49741 7.55024 7.50487C7.3775 7.51233 7.25741 7.51234 7.12972 7.51234C7.07721 7.51234 7.05469 7.54232 7.05469 7.59497V15.321C7.05469 15.3886 7.08467 15.4188 7.14479 15.4188H8.60145C8.65396 15.4111 8.69155 15.3661 8.68395 15.3136V12.9034C8.82656 12.9034 8.93172 12.9034 9.0069 12.9109C9.08194 12.9183 9.20202 12.9183 9.38222 12.9183C9.998 12.9183 10.5611 12.8508 11.0716 12.6631C11.5597 12.4829 11.9802 12.1675 12.2805 11.747C12.5808 11.3266 12.731 10.7935 12.731 10.1478C12.731 9.80989 12.671 9.48707 12.5584 9.17172C12.4391 8.85045 12.2521 8.55855 12.0102 8.31577C11.7247 8.03838 11.381 7.82804 11.004 7.7C10.5835 7.54232 10.073 7.46729 9.4574 7.46729ZM9.62493 8.94619C9.89241 8.95126 10.1529 8.998 10.3958 9.09655C10.6136 9.17918 10.7938 9.3294 10.9215 9.52452C11.0413 9.72646 11.1012 9.95827 11.0943 10.193C11.0943 10.5232 11.0191 10.7786 10.8614 10.9663C10.6961 11.1539 10.4859 11.2967 10.2458 11.3643C9.96787 11.4544 9.67505 11.4993 9.38222 11.4993H8.98424C8.89414 11.4993 8.79671 11.4918 8.69155 11.4843V8.96154C8.74406 8.95393 8.84923 8.94647 8.99944 8.95408C9.14205 8.94647 9.31465 8.94647 9.50991 8.94647C9.54839 8.94554 9.58673 8.94544 9.62493 8.94619ZM15.9221 9.32954C15.3889 9.32954 14.9459 9.41204 14.5931 9.59224C14.2703 9.74245 13.9924 9.98262 13.8047 10.2829C13.6396 10.5608 13.5493 10.8686 13.5493 11.1915C13.5429 11.4571 13.6023 11.7202 13.7221 11.9574C13.8625 12.2099 14.0575 12.4279 14.2928 12.5955C14.6231 12.8214 14.9815 13.0032 15.359 13.1361C15.7268 13.2787 15.9746 13.3914 16.0948 13.4889C16.2149 13.5866 16.275 13.6842 16.275 13.7893C16.275 13.9245 16.1924 14.0522 16.0723 14.1047C15.9371 14.1723 15.7344 14.2099 15.4491 14.2099C15.1488 14.2099 14.8483 14.1723 14.563 14.0972C14.2353 14.0241 13.9212 13.8999 13.632 13.7294C13.6095 13.7143 13.5869 13.7069 13.5644 13.7219C13.5419 13.7368 13.5344 13.7668 13.5344 13.7893V15.0958C13.527 15.1559 13.5644 15.2084 13.6171 15.2384C13.8605 15.3522 14.1181 15.433 14.3829 15.4787C14.7208 15.5463 15.0585 15.5763 15.4039 15.5763C15.9445 15.5763 16.3951 15.4938 16.763 15.3361C17.1008 15.201 17.3937 14.9683 17.6038 14.6678C17.8007 14.3725 17.9028 14.0241 17.8967 13.6693C17.9041 13.4012 17.8448 13.1354 17.7241 12.896C17.5813 12.6406 17.3786 12.4304 17.1308 12.2727C16.7683 12.0451 16.3802 11.8611 15.9746 11.7245C15.7934 11.6495 15.6156 11.5669 15.4414 11.4767C15.3439 11.4242 15.2538 11.3566 15.1862 11.274C15.1412 11.2139 15.1112 11.1465 15.1112 11.0789C15.1112 11.0113 15.1337 10.9363 15.1711 10.8762C15.2238 10.8011 15.3063 10.7485 15.4039 10.7259C15.5466 10.6885 15.7043 10.6658 15.8544 10.6733C16.1397 10.6733 16.4175 10.7109 16.6954 10.771C16.9508 10.8235 17.1909 10.9061 17.4162 11.0264C17.4462 11.0413 17.4838 11.0413 17.5513 11.0264C17.5631 11.0177 17.5726 11.0063 17.5791 10.9933C17.5856 10.9802 17.589 10.9658 17.5889 10.9512V9.72739C17.5889 9.69726 17.5813 9.66727 17.5739 9.63729C17.5588 9.6073 17.5288 9.57717 17.4988 9.56971C17.2917 9.48507 17.0748 9.42703 16.8531 9.39697C16.5448 9.35208 16.2336 9.32964 15.9221 9.32954Z" fill="#31A8FF"/>
</svg>
